# xmcd
#
# Track frame offsets:
#	150
#	16875
#	26067
#	39605
#	53832
#	68687
#	82100
#	94082
#	104995
#	126567
#	138700
#	151132
#	165217
#	184975
#	199367
#	215025
#
# Disc length: 3219 seconds
#
# Revision: 0
# Processed by: cddbd v1.5.2PL0 Copyright (c) Steve Scherf et al.
# Submitted via: dBpowerAMP V4.0
#
DISCID=ee0c9110
DTITLE=Varios - 16 Hits - Forro
DYEAR=2009
DGENRE=Folk
TTITLE0=Track01A vida do viajante - Gonzaguinha e Luiz Gonzaga
TTITLE1=Sebastiana - Jackson do Pandeiro
TTITLE2=Peba na Pimenta - Marines
TTITLE3=Severina Xique Xique - Genival Lacerda
TTITLE4=Feira de Mangaio - Clara Nunes
TTITLE5=Vou te matar de cheiro - Luiz Gonzaga
TTITLE6=Como tem Ze na Paraiba - Trio Nordestino
TTITLE7=Um a Um - Jackson do Pandeiro
TTITLE8=Forro do ABC - Sanfoneiro Ze Tatu - Moraes Moreira
TTITLE9=Respeita Januario - Alceu Valenca
TTITLE10=O fole roncou - Luiz Gonzaga
TTITLE11=Radinho de pilha - Genival Lacerda
TTITLE12=Sozinha - Mastruz com Leite
TTITLE13=Julieta - Sandro Becker
TTITLE14=Procurando tu - Rastape
TTITLE15=Asa Branca - Sivuca
EXTD=
EXTT0=
EXTT1=
EXTT2=
EXTT3=
EXTT4=
EXTT5=
EXTT6=
EXTT7=
EXTT8=
EXTT9=
EXTT10=
EXTT11=
EXTT12=
EXTT13=
EXTT14=
EXTT15=
PLAYORDER=
